<svg width="98" height="98" viewBox="0 0 98 98" fill="none" xmlns="http://www.w3.org/2000/svg">
<path d="M93.8629 53.0712L91.7872 49.7384C91.3116 48.9746 91.3116 48.0256 91.7872 47.2616L93.8629 43.9286C95.2121 41.7622 94.7141 38.9408 92.7046 37.366L89.6132 34.9433C88.9047 34.3882 88.5798 33.4963 88.7654 32.6159L89.5748 28.7746C90.101 26.2777 88.6673 23.7965 86.2398 23.0033L82.5055 21.783C81.6496 21.5033 81.039 20.7764 80.912 19.8858L80.3576 15.9996C79.9975 13.4735 77.7962 11.6349 75.2482 11.716L71.3212 11.8453C70.4207 11.8756 69.5985 11.4003 69.1742 10.6069L67.3229 7.14443C66.1195 4.8939 63.425 3.91395 61.0551 4.8652L57.4094 6.32868C56.5738 6.6638 55.6384 6.49924 54.9681 5.89855L52.043 3.27784C50.1417 1.57405 47.2742 1.57405 45.3729 3.27784L42.448 5.89892C41.7777 6.4996 40.8425 6.66435 40.0067 6.32886L36.361 4.86538C33.9911 3.91449 31.2966 4.89408 30.0932 7.14461L28.2419 10.6069C27.8175 11.4003 26.9954 11.8749 26.0949 11.8453L22.1679 11.716C19.6136 11.6348 17.4186 13.4735 17.0585 15.9996L16.5041 19.8858C16.377 20.7764 15.7665 21.5035 14.9106 21.783L11.1763 23.0033C8.74884 23.7965 7.31512 26.2775 7.84126 28.7746L8.65066 32.6159C8.8361 33.4963 8.51122 34.388 7.80272 34.9433L4.71129 37.366C2.70179 38.9408 2.20383 41.7622 3.55301 43.9286L5.62868 47.2616C6.10429 48.0254 6.10429 48.9744 5.62868 49.7384L3.55319 53.0714C2.20401 55.2378 2.70197 58.0592 4.71147 59.634L7.8029 62.0569C8.5114 62.612 8.83629 63.5039 8.65066 64.3843L7.84126 68.2256C7.31512 70.7225 8.74884 73.2037 11.1763 73.9969L14.9106 75.2172C15.7665 75.4969 16.377 76.2238 16.5041 77.1144L17.0585 81.0006C17.4188 83.5269 19.6208 85.3649 22.1679 85.2842L26.0949 85.1549C26.9961 85.1262 27.8175 85.5997 28.2419 86.3933L30.0932 89.8558C31.2966 92.1063 33.9913 93.0862 36.361 92.135L40.0067 90.6715C40.8421 90.336 41.7775 90.5008 42.448 91.1016L45.3729 93.7225C46.3238 94.5742 47.5157 95 48.708 95C49.9001 95 51.0925 94.5741 52.043 93.7222L54.9679 91.1011C55.6382 90.5004 56.574 90.3356 57.4092 90.6711L61.0549 92.1346C63.425 93.0857 66.1195 92.1061 67.3227 89.8554L69.174 86.3931C69.5984 85.5996 70.4196 85.1253 71.321 85.1547L75.248 85.284C77.8005 85.3671 79.9973 83.5265 80.3575 81.0004L80.9118 77.1142C81.0389 76.2236 81.6494 75.4965 82.5053 75.217L86.2396 73.9967C88.6671 73.2035 90.1008 70.7225 89.5747 68.2254L88.7653 64.3841C88.5798 63.5037 88.9047 62.612 89.6132 62.0568L92.7046 59.6338C94.7141 58.059 95.2121 55.2376 93.8629 53.0712ZM91.0698 57.5521L87.9786 59.9748C86.4701 61.1567 85.7785 63.0552 86.1734 64.9294L86.9828 68.7707C87.2301 69.9438 86.5565 71.1092 85.4162 71.4817L81.6819 72.702C79.8599 73.2974 78.5601 74.8452 78.2898 76.7409L77.7355 80.6271C77.5662 81.8138 76.5339 82.679 75.3353 82.6394L71.4082 82.51C69.4904 82.4481 67.741 83.4571 66.838 85.1464L64.9867 88.6086C64.4214 89.6658 63.1557 90.1264 62.0423 89.6794L58.3966 88.2159C56.618 87.5022 54.6265 87.8528 53.1995 89.1316L50.2746 91.7526C49.3816 92.5529 48.0345 92.5529 47.1415 91.7526L44.2166 89.1317C43.2787 88.2913 42.0973 87.8517 40.8925 87.8517C40.264 87.8517 39.6291 87.9714 39.0193 88.2161L35.3736 89.6796C34.2602 90.1264 32.9945 89.6661 32.4292 88.609L30.5779 85.1465C29.6747 83.4575 27.9208 82.4492 26.0077 82.5102L22.0807 82.6395C20.8797 82.6784 19.8497 81.814 19.6805 80.6273L19.1261 76.7411C18.8558 74.8452 17.5559 73.2976 15.734 72.7022L11.9997 71.4819C10.8594 71.1094 10.186 69.9438 10.4331 68.7709L11.2425 64.9296C11.6374 63.0556 10.9458 61.1571 9.43752 59.9751L6.34609 57.5524C5.40215 56.8126 5.16835 55.4872 5.80213 54.4694L7.87781 51.1365C8.89047 49.5105 8.89047 47.4901 7.87781 45.864L5.80213 42.5311C5.16835 41.5134 5.40234 40.1881 6.34609 39.4483L9.43734 37.0256C10.9458 35.8436 11.6374 33.9451 11.2425 32.071L10.4331 28.2298C10.1858 27.0568 10.8594 25.8914 11.9997 25.5188L15.734 24.2986C17.5561 23.7031 18.8558 22.1554 19.1261 20.2596L19.6805 16.3734C19.8497 15.1867 20.8813 14.3241 22.0807 14.3612L26.0077 14.4905C27.9223 14.5506 29.6747 13.5433 30.5779 11.8542L32.4292 8.39193C32.9947 7.33478 34.2602 6.87414 35.3736 7.32116L39.0193 8.78464C40.7979 9.49831 42.7893 9.14774 44.2164 7.86899L47.1413 5.24792C48.0344 4.44761 49.3814 4.44761 50.2744 5.24792L53.1993 7.86881C54.6263 9.14756 56.6178 9.49831 58.3964 8.78446L62.0421 7.32098C63.155 6.87378 64.4211 7.33442 64.9865 8.39157L66.8378 11.854C67.741 13.5431 69.4931 14.5521 71.4081 14.4903L75.3351 14.361C76.5332 14.322 77.566 15.1864 77.7353 16.3732L78.2896 20.2594C78.5599 22.1554 79.8599 23.703 81.6817 24.2984L85.416 25.5186C86.5563 25.8912 87.2297 27.0568 86.9827 28.2296L86.1732 32.0708C85.7784 33.9448 86.47 35.8433 87.9782 37.0252L91.0696 39.4479C92.0136 40.1878 92.2474 41.5132 91.6136 42.5309L89.5379 45.8638C88.5253 47.4899 88.5253 49.5103 89.5379 51.1363L91.6136 54.4693C92.2477 55.487 92.0138 56.8122 91.0698 57.5521Z" fill="#A4341C"/>
<path d="M82.5984 51.8071C81.8733 51.7081 81.2064 52.2161 81.1079 52.9401C80.0533 60.6975 76.2157 67.8336 70.3017 73.034C64.3345 78.281 56.6654 81.1705 48.7072 81.1705C40.749 81.1705 33.0797 78.2808 27.1126 73.0338C21.1987 67.8336 17.3611 60.6975 16.3065 52.94C16.2081 52.2159 15.5405 51.7084 14.816 51.8069C14.0913 51.9052 13.5836 52.572 13.6821 53.296C14.8224 61.6841 18.9708 69.3993 25.3629 75.02C31.814 80.6925 40.1045 83.8165 48.7074 83.8165C57.3102 83.8165 65.6008 80.6925 72.0518 75.02C78.4439 69.3993 82.5924 61.6841 83.7326 53.296C83.831 52.5721 83.3232 51.9053 82.5984 51.8071Z" fill="#A4341C"/>
<path d="M83.7279 43.6654C82.5793 35.2859 78.4279 27.5802 72.0383 21.9677C65.5895 16.303 57.3039 13.1833 48.7077 13.1833C40.1096 13.1833 31.8223 16.3043 25.3729 21.9713C18.9826 27.5864 14.8322 35.295 13.6861 43.677C13.5872 44.401 14.0942 45.0682 14.8189 45.1672C14.8796 45.1755 14.9402 45.1795 14.9998 45.1795C15.6516 45.1795 16.2196 44.6985 16.3103 44.0354C17.37 36.2835 21.2098 29.1534 27.1219 23.9585C33.0877 18.7165 40.7537 15.8295 48.7077 15.8295C56.6597 15.8295 64.3245 18.715 70.2896 23.9548C76.201 29.1474 80.0416 36.275 81.1037 44.0243C81.203 44.7483 81.8711 45.2556 82.5954 45.1557C83.3201 45.0566 83.827 44.3894 83.7279 43.6654Z" fill="#A4341C"/>
<path d="M59.6625 46.8486C55.6163 46.8486 52.5685 48.5811 52.5685 53.3063V61.0765C52.5685 65.8016 55.6163 67.5342 59.6625 67.5342C63.6563 67.5342 66.7566 65.8016 66.7566 61.0765V53.3063C66.7566 48.5811 63.6563 46.8486 59.6625 46.8486ZM62.973 61.0765C62.973 63.2292 61.7119 64.1741 59.6625 64.1741C57.6132 64.1741 56.4044 63.2292 56.4044 61.0765V53.3063C56.4044 51.1537 57.6132 50.2088 59.6625 50.2088C61.7119 50.2088 62.973 51.1537 62.973 53.3063V61.0765Z" fill="#A4341C"/>
<path d="M36.4356 28.998C32.3893 28.998 29.3413 30.7307 29.3413 35.4557V43.226C29.3413 47.9512 32.3893 49.6836 36.4356 49.6836C40.4291 49.6836 43.5296 47.9512 43.5296 43.226V35.4557C43.5296 30.7307 40.4291 28.998 36.4356 28.998ZM39.7461 43.226C39.7461 45.3786 38.4849 46.3235 36.4356 46.3235C34.3861 46.3235 33.1774 45.3786 33.1774 43.226V35.4557C33.1774 33.3031 34.3861 32.3582 36.4356 32.3582C38.4849 32.3582 39.7461 33.3031 39.7461 35.4557V43.226Z" fill="#A4341C"/>
<path d="M57.6127 26.9504C56.982 26.9504 56.3515 27.2129 56.0361 27.8953L36.7504 66.484C36.5928 66.7465 36.5403 67.0091 36.5403 67.2716C36.5403 68.2165 37.3811 69.214 38.5898 69.214C39.3255 69.214 40.0611 68.8466 40.3766 68.2165L59.662 29.7855C59.7671 29.5228 59.8196 29.2604 59.8196 28.9454C59.8196 27.7379 58.6637 26.9504 57.6127 26.9504Z" fill="#A4341C"/>
</svg>
