<svg width="34" height="33" viewBox="0 0 34 33" fill="none" xmlns="http://www.w3.org/2000/svg">
<path d="M31.1614 1.01514H2.80385C1.83285 1.0157 1.0457 1.78008 1.0459 2.72289V30.2464C1.04648 31.1888 1.83402 31.9528 2.8054 31.9526H18.0729V19.9885H13.9329V15.3056H18.0729V11.8593C18.0729 7.86278 20.5867 5.68748 24.2597 5.68748C26.0191 5.68748 27.5309 5.81475 27.9716 5.87159V10.0486H25.4387C23.4403 10.0486 23.0533 10.9703 23.0533 12.3231V15.3056H27.8315L27.2089 19.9885H23.0533V31.9526H31.1614C32.133 31.9528 32.9207 31.1886 32.9209 30.2456C32.9209 30.2454 32.9209 30.2453 32.9209 30.2449V2.72138C32.9205 1.77894 32.1328 1.01495 31.1614 1.01514Z" fill="#A4341C"/>
</svg>
