<svg width="98" height="98" viewBox="0 0 98 98" fill="none" xmlns="http://www.w3.org/2000/svg">
<g clip-path="url(#clip0)">
<path d="M78.4803 54.7077H67.3466C77.7398 43.3887 78.256 27.5596 77.9492 20.94C77.8962 19.7966 77.1952 18.8225 76.12 18.3974C75.0274 17.965 73.7861 18.2184 72.9575 19.0422L62.671 29.2668C62.1114 29.823 62.1046 30.7318 62.6557 31.2968C63.2067 31.8615 64.1071 31.8684 64.6668 31.3123L74.9531 21.0878C74.9705 21.0706 74.9862 21.0549 75.0255 21.0589C75.061 21.0597 75.0921 21.0729 75.1084 21.0836C75.4152 27.726 74.8586 44.1634 63.303 54.7077H56.0669C56.1917 54.4442 56.3117 54.1787 56.4308 53.9128C59.2229 51.0681 64.4689 45.2461 67.9436 38.4725C68.3046 37.7685 68.0321 36.9022 67.3345 36.5377C66.6372 36.1731 65.779 36.448 65.4177 37.1525C63.5571 40.7797 61.1117 44.1658 58.8577 46.9144C59.6776 43.641 60.1016 40.283 60.1016 36.9251C60.1016 23.89 53.8978 7.93972 51.2305 1.68705C50.7931 0.662074 49.7845 0 48.6605 0C47.5366 0 46.528 0.662074 46.0907 1.68686C43.4235 7.93953 37.2195 23.8902 37.2195 36.9249C37.2195 40.2826 37.6437 43.6408 38.4634 46.9142C36.2095 44.1657 33.7641 40.7797 31.9033 37.1525C31.5421 36.4483 30.6835 36.1735 29.9866 36.5377C29.289 36.9022 29.0165 37.7687 29.3775 38.4725C32.8522 45.2461 38.0984 51.0681 40.8903 53.9128C41.0093 54.1787 41.1294 54.4442 41.2541 54.7077H34.0178C22.4651 44.166 21.9061 27.7344 22.2127 21.0834C22.2292 21.0727 22.2601 21.0597 22.2954 21.0589C22.3312 21.0545 22.3504 21.0708 22.3676 21.0878L32.669 31.3271C33.2284 31.8831 34.129 31.8764 34.6802 31.3116C35.2313 30.7465 35.2244 29.8377 34.6648 29.2815L24.3633 19.0422C23.5348 18.2186 22.2931 17.9652 21.2009 18.3974C20.1255 18.8225 19.4246 19.7968 19.3717 20.9398C19.0649 27.5596 19.5811 43.3889 29.9743 54.7077H18.8408C15.814 54.7077 13.3517 57.1931 13.3517 60.2482C13.3517 63.3034 15.814 65.7888 18.8408 65.7888H19.9285L26.2952 93.3471C26.9279 96.0867 29.3163 98 32.1032 98H65.2181C68.0048 98 70.3933 96.0867 71.0261 93.3471L77.3928 65.7888H78.4805C81.5073 65.7888 83.9696 63.3034 83.9696 60.2482C83.9694 57.1933 81.5071 54.7077 78.4803 54.7077ZM48.6605 2.92277C51.2808 9.0805 57.257 24.492 57.257 36.9251C57.257 44.5242 54.9692 50.6821 52.8905 54.7079H50.0827V26.7946C50.0827 26.0016 49.4462 25.359 48.6605 25.359C47.8749 25.359 47.2383 26.0016 47.2383 26.7946V54.7077H44.4306C42.3519 50.6817 40.0639 44.5238 40.0639 36.9249C40.0639 24.4925 46.0401 9.08031 48.6605 2.92277ZM78.4803 62.9179H33.9648C33.1791 62.9179 32.5426 63.5605 32.5426 64.3535C32.5426 65.1465 33.1791 65.789 33.9648 65.789H74.4722L68.2561 92.6952C67.925 94.128 66.6757 95.1289 65.2181 95.1289H32.1032C30.6454 95.1289 29.3963 94.128 29.0652 92.6952L22.8491 65.789H27.3167C28.1023 65.789 28.7389 65.1465 28.7389 64.3535C28.7389 63.5605 28.1023 62.9179 27.3167 62.9179H18.8408C17.3826 62.9179 16.1961 61.7203 16.1961 60.2484C16.1961 58.7765 17.3826 57.579 18.8408 57.579H78.4803C79.9385 57.579 81.125 58.7765 81.125 60.2484C81.125 61.7203 79.9385 62.9179 78.4803 62.9179Z" fill="#A4341C"/>
</g>
<defs>
<clipPath id="clip0">
<rect width="97.0883" height="98" fill="white" transform="translate(0.116409)"/>
</clipPath>
</defs>
</svg>
