<svg width="117" height="83" viewBox="0 0 117 83" fill="none" xmlns="http://www.w3.org/2000/svg">
<path d="M109.716 40.4027L102.116 32.1061C101.541 31.4776 100.741 31.1172 99.9216 31.1172H91.1389C89.4382 31.1172 88.0544 32.6094 88.0544 34.4434V48.6166C88.0544 50.4507 89.4382 51.9431 91.1389 51.9431H107.522C109.222 51.9431 110.606 50.4507 110.606 48.6166V42.7403C110.606 41.8592 110.29 41.029 109.716 40.4027ZM107.301 48.3794H91.3589V34.6809H99.8294L107.301 42.8378V48.3794Z" fill="#A4341C"/>
<path d="M74.0582 50.097C74.0562 50.0782 74.053 50.0596 74.0503 50.041C74.0426 49.986 74.0324 49.932 74.0201 49.8787C74.016 49.8615 74.0124 49.8444 74.0079 49.8276C73.9716 49.6894 73.9208 49.5581 73.8564 49.4358C73.8494 49.4224 73.8414 49.4094 73.834 49.3959C73.8074 49.3485 73.7791 49.3025 73.7487 49.258C73.7383 49.2426 73.7278 49.2272 73.7169 49.2123C73.6788 49.16 73.6387 49.1096 73.5954 49.0624C73.5931 49.0599 73.5913 49.0573 73.589 49.0548C73.5432 49.0052 73.4938 48.9594 73.4428 48.9159C73.4294 48.9044 73.4156 48.8939 73.4017 48.8829C73.3589 48.8487 73.3144 48.8166 73.2686 48.7868C73.2605 48.7817 73.2534 48.7751 73.2453 48.7699L65.5179 43.9588C64.7272 43.4666 63.7169 43.7588 63.2607 44.611C62.8044 45.4632 63.0752 46.5532 63.8654 47.0449L66.2522 48.531H12.1262C11.2137 48.531 10.474 49.3287 10.474 50.313C10.474 51.297 11.2137 52.0947 12.1262 52.0947H66.2522L63.8654 53.5807C63.0752 54.073 62.8044 55.1627 63.2607 56.0151C63.5666 56.5869 64.1221 56.9065 64.6931 56.9065C64.9734 56.9065 65.2578 56.8295 65.5179 56.6673L73.2453 51.8563C73.2534 51.8511 73.2605 51.8448 73.2686 51.8394C73.3144 51.8096 73.3589 51.7775 73.4017 51.7433C73.4156 51.7323 73.4294 51.7215 73.4428 51.7103C73.4938 51.6667 73.5432 51.621 73.589 51.5714C73.5911 51.5692 73.5929 51.5665 73.5952 51.564C73.6385 51.5166 73.6786 51.4662 73.7169 51.4136C73.7278 51.3987 73.7383 51.3833 73.7487 51.3679C73.7791 51.3234 73.8074 51.2774 73.834 51.23C73.8414 51.2165 73.8494 51.2036 73.8564 51.1901C73.9208 51.0679 73.9716 50.9365 74.0079 50.7984C74.0124 50.7815 74.016 50.7644 74.0201 50.7473C74.0326 50.694 74.0426 50.6399 74.0503 50.5849C74.053 50.5661 74.0562 50.5477 74.0582 50.5289C74.0662 50.458 74.0716 50.3863 74.0716 50.313C74.0716 50.2396 74.0664 50.168 74.0582 50.097Z" fill="#A4341C"/>
<path d="M58.8317 0.0004883H5.50742C2.71794 0.00024376 0.448669 2.44735 0.448669 5.45542V44.5927C0.448669 45.5767 1.18839 46.3744 2.1009 46.3744C3.01342 46.3744 3.75336 45.5767 3.75336 44.5927V5.45542C3.75336 4.41246 4.54025 3.56391 5.50742 3.56391H58.8317C59.7445 3.56391 60.4842 2.76623 60.4842 1.7822C60.4842 0.798175 59.7445 0.0004883 58.8317 0.0004883Z" fill="#A4341C"/>
<path d="M115.076 36.6479L105.198 25.8641C104.243 24.8211 102.915 24.223 101.556 24.223H85.4101V5.45522C85.4101 2.44712 83.1408 0 80.3516 0H70.474C69.5613 0 68.8216 0.797693 68.8216 1.78172C68.8216 2.76576 69.5613 3.56345 70.474 3.56345H80.3516C81.3188 3.56345 82.1054 4.412 82.1054 5.45497V63.5716H35.3961C35.3816 63.5498 35.3662 63.529 35.3515 63.5072C35.3197 63.4603 35.2868 63.4141 35.2544 63.3676C35.1841 63.2666 35.1127 63.1666 35.0394 63.068C35.0007 63.016 34.9617 62.9641 34.922 62.9125C34.8467 62.8147 34.7696 62.7184 34.6914 62.623C34.6548 62.5785 34.619 62.5335 34.5816 62.4892C34.4653 62.3515 34.3467 62.2156 34.2242 62.0835C33.9739 61.8138 33.7138 61.5612 33.4464 61.3228C33.384 61.267 33.3205 61.2134 33.2573 61.1594C33.0081 60.9469 32.7536 60.7449 32.4922 60.5588C32.4609 60.5366 32.4287 60.5168 32.3971 60.4947C32.2116 60.3659 32.0232 60.2446 31.8325 60.1287C31.0016 59.6244 30.1236 59.2449 29.2203 58.9903C29.1405 58.9678 29.0609 58.9446 28.9809 58.9241C28.657 58.8412 28.3305 58.7727 28.0021 58.7216C28.0003 58.7213 27.9985 58.7208 27.9965 58.7206C27.947 58.713 27.8971 58.7084 27.8477 58.7013C27.6461 58.6729 27.4441 58.6511 27.2418 58.635C26.9898 58.6147 26.7372 58.602 26.4846 58.6C26.4594 58.5998 26.434 58.5981 26.4089 58.5981C26.156 58.5981 25.9034 58.6106 25.6512 58.6291C25.3739 58.6494 25.097 58.6778 24.8215 58.7206C24.5918 58.7563 24.3634 58.8025 24.1357 58.8539C23.4942 58.9981 22.862 59.2016 22.2481 59.4694C22.1835 59.4975 22.12 59.5298 22.0558 59.5594C21.459 59.8345 20.8789 60.1653 20.326 60.5586C20.3065 60.5725 20.2877 60.5879 20.2682 60.6019C19.677 61.0281 19.1153 61.5208 18.594 62.0833C18.4749 62.2117 18.3595 62.3432 18.2463 62.477C18.2033 62.5276 18.162 62.5797 18.12 62.6311C18.0534 62.7125 17.9869 62.7944 17.9225 62.8778C17.8699 62.9458 17.8184 63.0142 17.7672 63.0832C17.7187 63.1487 17.6708 63.215 17.6234 63.2815C17.5651 63.3635 17.5075 63.4459 17.4513 63.5293C17.4418 63.5434 17.4316 63.5569 17.4223 63.5711H5.50742C4.54025 63.5711 3.75336 62.7228 3.75336 61.6795V57.0651C3.75336 56.081 3.01364 55.2831 2.1009 55.2831C1.18839 55.2831 0.448669 56.0808 0.448669 57.0651V61.6795C0.448669 64.6876 2.71794 67.1348 5.50742 67.1348H5.95664V69.0312C5.95664 71.4409 7.77464 73.4014 10.0092 73.4014H15.6825C16.1603 75.4795 17.1538 77.3857 18.594 78.9385C20.6814 81.1897 23.457 82.4296 26.4093 82.4296C29.3614 82.4296 32.137 81.1897 34.2244 78.9385C35.6932 77.3546 36.6604 75.4318 37.128 73.4014H87.9034C88.371 75.4318 89.3382 77.3546 90.807 78.9385C92.8946 81.1897 95.67 82.4296 98.6223 82.4296C101.575 82.4296 104.35 81.1897 106.438 78.9385C107.906 77.3546 108.874 75.4318 109.341 73.4014H110.28C113.677 73.4014 116.441 70.4211 116.441 66.7579V65.9986C116.513 65.7981 116.554 65.5809 116.554 65.3528V40.5282C116.554 39.0661 116.029 37.6879 115.076 36.6479ZM15.3752 69.8384H10.009C9.59673 69.8384 9.26111 69.4767 9.26111 69.0319V67.1355H15.8056C15.5682 68.0075 15.4229 68.9128 15.3752 69.8384ZM34.1523 70.5417C34.1519 70.6588 34.1494 70.7757 34.1446 70.8924C34.1439 70.9061 34.1435 70.9198 34.1428 70.9335C34.1371 71.0562 34.129 71.179 34.1183 71.3015C34.1179 71.3074 34.1174 71.3132 34.1169 71.3193C33.9505 73.1823 33.2076 74.9958 31.8874 76.4195C30.424 77.9975 28.4784 78.8666 26.4089 78.8666C24.3394 78.8666 22.3937 77.9975 20.9304 76.4195C19.6739 75.0645 18.9037 73.3256 18.7108 71.4485C18.7101 71.4411 18.7103 71.4338 18.7096 71.4265C18.5278 69.6335 18.8922 67.7994 19.736 66.2617C19.736 66.2615 19.7362 66.2613 19.7364 66.2613C19.8169 66.1145 19.902 65.9707 19.9909 65.8294C20.0002 65.8147 20.0099 65.8005 20.0192 65.7861C20.0941 65.669 20.1718 65.554 20.2523 65.4408C20.2761 65.4073 20.3004 65.3741 20.3247 65.3411C20.3957 65.2442 20.4689 65.1493 20.5437 65.0557C20.5698 65.0229 20.5954 64.9899 20.6222 64.9576C20.722 64.8368 20.8242 64.7182 20.9306 64.6035C22.4411 62.9749 24.4251 62.1606 26.4091 62.1606C27.8876 62.1606 29.3664 62.6137 30.6492 63.5185C31.0873 63.8276 31.503 64.189 31.8876 64.6038C31.9937 64.7182 32.0958 64.8366 32.1953 64.9571C32.2273 64.9958 32.2577 65.0354 32.2887 65.0745C32.3547 65.1574 32.4196 65.2415 32.4826 65.3269C32.5182 65.3753 32.5534 65.4242 32.5879 65.4733C32.6432 65.5518 32.6967 65.6318 32.7491 65.7125C32.784 65.7661 32.8196 65.8194 32.8532 65.8737C32.9044 65.9563 32.9529 66.0407 33.0015 66.1253C33.1593 66.4011 33.3024 66.6838 33.4278 66.9736C33.4337 66.9873 33.4396 67.0012 33.4455 67.0149C33.4897 67.1186 33.5314 67.223 33.5716 67.3282C33.5793 67.3485 33.5872 67.3685 33.5947 67.3891C33.6344 67.4955 33.6716 67.6028 33.707 67.7107C33.7117 67.7256 33.7172 67.7402 33.7219 67.7549C33.7602 67.874 33.7961 67.9938 33.8292 68.1144C33.8392 68.1503 33.8475 68.1865 33.8571 68.2227C33.8786 68.3046 33.8995 68.3868 33.9188 68.4695C33.9308 68.5216 33.9419 68.5739 33.953 68.6262C33.9675 68.6944 33.9816 68.7629 33.9945 68.8314C34.0049 68.8862 34.0147 68.9412 34.0242 68.9962C34.0362 69.0669 34.0471 69.1378 34.0573 69.2087C34.0646 69.2591 34.0723 69.3092 34.0786 69.3596C34.0906 69.4535 34.1008 69.5476 34.1099 69.6418C34.1124 69.6687 34.1158 69.6953 34.1183 69.7222C34.1294 69.8509 34.1383 69.9798 34.1439 70.1089C34.1442 70.1123 34.1442 70.1157 34.1442 70.1189C34.1496 70.2446 34.1523 70.3705 34.1525 70.4962C34.1528 70.5114 34.1526 70.5265 34.1523 70.5417ZM87.8735 67.7564C87.8615 67.8109 87.8515 67.8659 87.8401 67.921C87.8091 68.0728 87.7798 68.2249 87.7544 68.3778C87.7417 68.4533 87.7304 68.5289 87.7191 68.6047C87.6996 68.735 87.6821 68.8654 87.6667 68.9962C87.656 69.0864 87.6456 69.1764 87.6367 69.2669C87.6261 69.3777 87.6179 69.489 87.6102 69.6C87.6045 69.6795 87.5955 69.7587 87.5912 69.8384H37.44C37.4359 69.7619 37.4271 69.6856 37.4216 69.6093C37.4137 69.4941 37.4051 69.3789 37.394 69.264C37.3854 69.1757 37.3752 69.0879 37.3647 69.0001C37.3491 68.8671 37.3314 68.7343 37.3117 68.6018C37.3005 68.5277 37.2894 68.4538 37.277 68.3802C37.2511 68.2257 37.2216 68.0716 37.1901 67.918C37.1792 67.8647 37.1692 67.8109 37.1577 67.7579C37.1121 67.5495 37.0624 67.3419 37.0064 67.1357H88.0245C87.9685 67.3411 87.9191 67.5483 87.8735 67.7564ZM106.366 70.5312C106.366 70.6544 106.363 70.7777 106.358 70.9007C106.357 70.9088 106.357 70.9171 106.356 70.9251C106.266 72.9248 105.514 74.8958 104.101 76.4195C102.637 77.9975 100.692 78.8666 98.6223 78.8666C96.5528 78.8666 94.6071 77.9975 93.144 76.4195C91.7308 74.8955 90.9791 72.9248 90.8881 70.9251C90.8877 70.9171 90.8875 70.9088 90.887 70.9007C90.8818 70.7777 90.8791 70.6547 90.8789 70.5317C90.8789 70.5214 90.8786 70.5114 90.8786 70.5011C90.8789 70.2404 90.8904 69.9795 90.9131 69.7198C90.9151 69.698 90.9179 69.6763 90.9199 69.6543C90.9294 69.555 90.9401 69.4559 90.953 69.3571C90.9591 69.3092 90.9664 69.2615 90.9734 69.2138C90.9841 69.1402 90.9954 69.0669 91.0079 68.9935C91.0169 68.9402 91.0265 68.8871 91.0365 68.8341C91.0498 68.7636 91.0641 68.6935 91.0791 68.6235C91.09 68.5727 91.1006 68.5216 91.1124 68.4707C91.1321 68.3853 91.1537 68.3005 91.1761 68.2156C91.1848 68.1826 91.1927 68.1491 91.2018 68.1161C91.2353 67.9946 91.2712 67.8738 91.3099 67.7537C91.314 67.741 91.3186 67.7288 91.3226 67.716C91.3589 67.6055 91.397 67.4957 91.4378 67.3864C91.4446 67.3683 91.4517 67.3504 91.4585 67.3324C91.4995 67.2245 91.5424 67.1171 91.588 67.0105C91.5927 66.9993 91.5975 66.988 91.6025 66.9765C91.7292 66.6831 91.8744 66.3967 92.0347 66.1177C92.0816 66.0363 92.1283 65.9546 92.1778 65.8746C92.212 65.8191 92.2483 65.7648 92.2839 65.7101C92.3358 65.6303 92.3889 65.5514 92.4433 65.4738C92.4782 65.4242 92.5136 65.3748 92.5497 65.3259C92.6123 65.2408 92.6767 65.1574 92.7424 65.075C92.7739 65.0354 92.8046 64.9955 92.8368 64.9564C92.9363 64.8361 93.0384 64.7177 93.1443 64.6035C95.36 62.2141 98.5946 61.5798 101.354 62.6959C101.886 62.911 102.401 63.1891 102.887 63.5346C103.316 63.8401 103.723 64.1964 104.101 64.6035C104.207 64.7177 104.309 64.8358 104.408 64.9559C104.441 64.996 104.472 65.0368 104.505 65.0774C104.569 65.1586 104.633 65.2405 104.694 65.3239C104.731 65.3745 104.768 65.4254 104.804 65.4765C104.857 65.5518 104.908 65.6286 104.958 65.7059C104.995 65.7626 105.033 65.8191 105.068 65.8766C105.117 65.9546 105.163 66.0346 105.208 66.1143C105.37 66.3953 105.516 66.6833 105.644 66.979C105.648 66.9885 105.652 66.9981 105.656 67.0076C105.702 67.1164 105.746 67.2262 105.788 67.3368C105.794 67.3524 105.8 67.3678 105.806 67.3837C105.848 67.4967 105.888 67.6106 105.925 67.7253C105.928 67.7341 105.931 67.7427 105.934 67.7515C105.973 67.873 106.01 67.9953 106.044 68.1183C106.051 68.1464 106.058 68.1748 106.066 68.2032C106.089 68.2929 106.112 68.3829 106.133 68.4736C106.144 68.5216 106.154 68.5697 106.165 68.6179C106.18 68.6908 106.195 68.7639 106.209 68.8372C106.219 68.8881 106.228 68.9392 106.237 68.9903C106.249 69.0659 106.261 69.142 106.272 69.2178C106.279 69.2635 106.286 69.3092 106.292 69.3552C106.305 69.4569 106.316 69.5589 106.326 69.6609C106.327 69.6802 106.33 69.6993 106.332 69.7186C106.354 69.9788 106.366 70.2402 106.366 70.5014C106.366 70.5114 106.366 70.5212 106.366 70.5312ZM110.28 69.8384H109.653C109.649 69.7628 109.64 69.688 109.635 69.6124C109.627 69.496 109.618 69.3796 109.607 69.2635C109.598 69.1752 109.588 69.0872 109.577 68.9991C109.562 68.8668 109.544 68.7348 109.525 68.603C109.513 68.5279 109.502 68.4531 109.489 68.3785C109.464 68.2254 109.435 68.0728 109.404 67.9207C109.392 67.8659 109.382 67.8112 109.37 67.7566C109.325 67.5485 109.275 67.3414 109.219 67.1357H113.114C112.942 68.6565 111.736 69.8384 110.28 69.8384ZM107.609 63.5718C107.595 63.5505 107.58 63.53 107.565 63.509C107.533 63.461 107.499 63.4138 107.466 63.3661C107.396 63.2659 107.325 63.1666 107.253 63.0685C107.214 63.016 107.174 62.9639 107.134 62.912C107.06 62.8152 106.984 62.7198 106.906 62.6254C106.869 62.5797 106.832 62.5335 106.794 62.4882C106.678 62.3508 106.559 62.2156 106.437 62.0838C106.304 61.9402 106.168 61.8008 106.029 61.6656C106.007 61.6443 105.985 61.6248 105.963 61.604C105.844 61.4895 105.724 61.3768 105.6 61.2685C105.595 61.2636 105.589 61.2589 105.583 61.254C103.62 59.5308 101.188 58.5932 98.6218 58.5932C96.0557 58.5932 93.6239 59.5308 91.6605 61.254C91.6549 61.2589 91.6489 61.2636 91.6433 61.2685C91.5204 61.3768 91.4 61.4895 91.2807 61.604C91.2587 61.625 91.236 61.6446 91.2145 61.6656C91.0757 61.8008 90.9396 61.9402 90.8065 62.0838C90.6847 62.2151 90.5666 62.3503 90.4507 62.4873C90.4115 62.5337 90.3736 62.5812 90.3351 62.6284C90.2593 62.7208 90.1847 62.8142 90.1117 62.9091C90.0702 62.9629 90.0294 63.0169 89.989 63.0715C89.9178 63.1673 89.8482 63.2649 89.7797 63.3632C89.7459 63.4119 89.7112 63.46 89.6783 63.5092C89.6641 63.5302 89.6491 63.5505 89.635 63.5716H85.4099V27.7867H101.556C102.037 27.7867 102.508 27.9989 102.847 28.3687L112.725 39.1522C112.725 39.1522 112.725 39.1522 112.725 39.1524C113.063 39.5212 113.249 40.0098 113.249 40.5282V63.5718H107.609Z" fill="#A4341C"/>
<path d="M26.4088 64.8135C23.495 64.8135 21.1246 67.3696 21.1246 70.5117C21.1246 73.6537 23.495 76.2098 26.4088 76.2098C29.3225 76.2098 31.693 73.6537 31.693 70.5117C31.693 67.3696 29.3223 64.8135 26.4088 64.8135ZM26.4088 72.646C25.3174 72.646 24.4293 71.6884 24.4293 70.5114C24.4293 69.3345 25.3174 68.3769 26.4088 68.3769C27.5002 68.3769 28.3883 69.3345 28.3883 70.5114C28.388 71.6886 27.5002 72.646 26.4088 72.646Z" fill="#A4341C"/>
<path d="M98.622 64.8135C95.7085 64.8135 93.3378 67.3696 93.3378 70.5117C93.3378 73.6537 95.7085 76.2098 98.622 76.2098C101.536 76.2098 103.906 73.6537 103.906 70.5117C103.906 67.3696 101.536 64.8135 98.622 64.8135ZM98.622 72.646C97.5306 72.646 96.6425 71.6884 96.6425 70.5114C96.6425 69.3345 97.5306 68.3769 98.622 68.3769C99.7134 68.3769 100.601 69.3345 100.601 70.5114C100.601 71.6886 99.7134 72.646 98.622 72.646Z" fill="#A4341C"/>
<path d="M22.96 18.9141H13.9428C13.201 18.9141 12.4023 19.2584 12.4023 20.0145V37.809C12.4023 38.5316 13.308 38.9094 14.2024 38.9094C15.0968 38.9094 16.0025 38.5314 16.0025 37.809V30.3346H20.153C20.9399 30.3346 21.1476 29.4129 21.1476 28.9258C21.1476 28.2203 20.8363 27.461 20.153 27.461H16.0027V22.2361H22.96C23.6432 22.2361 23.9546 21.3607 23.9546 20.5471C23.9546 19.9406 23.745 18.9141 22.96 18.9141Z" fill="#A4341C"/>
<path d="M40.3802 36.6664L37.0842 30.2279L37.3268 30.1269C38.6954 29.5578 40.3263 28.1483 40.3263 24.6662C40.3263 20.8494 38.2518 18.9141 34.1604 18.9141H28.7813C28.1184 18.9141 27.7608 19.4667 27.7608 19.9866V37.8092C27.7608 38.5318 28.6663 38.9096 29.5609 38.9096C30.4555 38.9096 31.361 38.5316 31.361 37.8092V30.8111H33.4411L37.0638 38.3963C37.3377 38.9598 37.8123 39.0779 38.1622 39.0779C39.2464 39.0779 40.4821 37.999 40.4821 37.0526C40.4821 36.9704 40.47 36.8132 40.3802 36.6664ZM34.1604 27.9375H31.361V22.2362H34.1604C35.8868 22.2362 36.7259 23.1686 36.7259 25.0868C36.7259 27.005 35.8868 27.9375 34.1604 27.9375Z" fill="#A4341C"/>
<path d="M55.7035 35.5873H48.5125V30.3346H52.6371C53.424 30.3346 53.6317 29.4129 53.6317 28.9258C53.6317 28.2203 53.3204 27.461 52.6371 27.461H48.5125V22.2361H55.7035C56.3867 22.2361 56.6981 21.3607 56.6981 20.5471C56.6981 19.9406 56.4886 18.9141 55.7035 18.9141H46.4525C45.7107 18.9141 44.9123 19.2584 44.9123 20.0145V37.809C44.9123 38.5651 45.7107 38.9094 46.4525 38.9094H55.7035C56.4886 38.9094 56.6981 37.8828 56.6981 37.2764C56.6981 36.4628 56.3867 35.5873 55.7035 35.5873Z" fill="#A4341C"/>
<path d="M71.6845 35.5874H64.4933V30.3347H68.6182C69.4049 30.3347 69.6126 29.413 69.6126 28.9259C69.6126 28.2204 69.3014 27.4611 68.6182 27.4611H64.4933V22.2362H71.6845C72.3678 22.2362 72.6789 21.3607 72.6789 20.5471C72.6789 19.9406 72.4694 18.9141 71.6845 18.9141H62.4336C61.6918 18.9141 60.8931 19.2584 60.8931 20.0145V37.8091C60.8931 38.5652 61.6916 38.9095 62.4336 38.9095H71.6845C72.4694 38.9095 72.6789 37.883 72.6789 37.2765C72.6789 36.4629 72.3678 35.5874 71.6845 35.5874Z" fill="#A4341C"/>
</svg>
