<svg width="34" height="33" viewBox="0 0 34 33" fill="none" xmlns="http://www.w3.org/2000/svg">
<g clip-path="url(#clip0)">
<path d="M33.9667 9.70209C33.887 7.94867 33.5949 6.74321 33.1764 5.69867C32.7447 4.58991 32.0805 3.59724 31.2103 2.77203C30.3601 1.93397 29.3306 1.28277 28.2015 0.870287C27.119 0.464103 25.8835 0.180554 24.077 0.103246C22.2569 0.0193901 21.6791 0 17.063 0C12.4469 0 11.8691 0.0193901 10.0558 0.0966986C8.24923 0.174007 7.00725 0.457807 5.93131 0.86374C4.78869 1.28277 3.76594 1.92742 2.91572 2.77203C2.05227 3.59724 1.38159 4.59646 0.956352 5.69237C0.537859 6.74321 0.245718 7.94213 0.166067 9.69554C0.07967 11.4621 0.0596924 12.0229 0.0596924 16.5032C0.0596924 20.9836 0.07967 21.5444 0.159321 23.3044C0.238972 25.0578 0.531372 26.2632 0.949865 27.3078C1.38159 28.4165 2.05227 29.4092 2.91572 30.2344C3.76594 31.0725 4.79543 31.7237 5.92456 32.1362C7.00725 32.5423 8.24249 32.8259 10.0493 32.9032C11.8623 32.9808 12.4404 32.9999 17.0565 32.9999C21.6727 32.9999 22.2505 32.9808 24.0637 32.9032C25.8703 32.8259 27.1123 32.5423 28.1882 32.1362C30.4732 31.2787 32.2798 29.5253 33.1632 27.3078C33.5814 26.2569 33.8738 25.0578 33.9535 23.3044C34.0331 21.5444 34.0531 20.9836 34.0531 16.5032C34.0531 12.0229 34.0463 11.4621 33.9667 9.70209ZM30.9049 23.1754C30.8318 24.7871 30.5529 25.6574 30.3204 26.2375C29.7491 27.6752 28.5735 28.8162 27.0923 29.3707C26.4945 29.5963 25.5914 29.867 23.9374 29.9378C22.1441 30.0153 21.6062 30.0345 17.0698 30.0345C12.5333 30.0345 11.9887 30.0153 10.2019 29.9378C8.54137 29.867 7.64471 29.5963 7.04694 29.3707C6.30984 29.1063 5.63891 28.6872 5.09432 28.1393C4.52976 27.6042 4.09803 26.9595 3.82561 26.2441C3.59314 25.6639 3.31423 24.7871 3.24133 23.182C3.16142 21.4414 3.1417 20.9191 3.1417 16.5161C3.1417 12.113 3.16142 11.5844 3.24133 9.85041C3.31423 8.23877 3.59314 7.36848 3.82561 6.78829C4.09803 6.07262 4.52976 5.42167 5.10107 4.89285C5.65214 4.34489 6.31633 3.92586 7.05369 3.6617C7.65146 3.43607 8.55486 3.16537 10.2086 3.09435C12.0019 3.01705 12.54 2.99766 17.0762 2.99766C21.6195 2.99766 22.1573 3.01705 23.9441 3.09435C25.6046 3.16537 26.5013 3.43607 27.0991 3.6617C27.8362 3.92586 28.5071 4.34489 29.0517 4.89285C29.6162 5.42796 30.048 6.07262 30.3204 6.78829C30.5529 7.36848 30.8318 8.24506 30.9049 9.85041C30.9846 11.591 31.0046 12.113 31.0046 16.5161C31.0046 20.9191 30.9846 21.4349 30.9049 23.1754Z" fill="#A4341C"/>
<path d="M17.063 8.026C12.2411 8.026 8.32886 11.8229 8.32886 16.5032C8.32886 21.1836 12.2411 24.9805 17.063 24.9805C21.8851 24.9805 25.7971 21.1836 25.7971 16.5032C25.7971 11.8229 21.8851 8.026 17.063 8.026ZM17.063 22.0022C13.9348 22.0022 11.3974 19.5397 11.3974 16.5032C11.3974 13.4668 13.9348 11.0043 17.063 11.0043C20.1914 11.0043 22.7286 13.4668 22.7286 16.5032C22.7286 19.5397 20.1914 22.0022 17.063 22.0022Z" fill="#A4341C"/>
<path d="M28.1818 7.69084C28.1818 8.78374 27.2688 9.66989 26.1425 9.66989C25.0165 9.66989 24.1035 8.78374 24.1035 7.69084C24.1035 6.59769 25.0165 5.71179 26.1425 5.71179C27.2688 5.71179 28.1818 6.59769 28.1818 7.69084Z" fill="#A4341C"/>
</g>
<defs>
<clipPath id="clip0">
<rect width="34" height="33" fill="white"/>
</clipPath>
</defs>
</svg>
