<svg width="120" height="49" viewBox="0 0 120 49" fill="none" xmlns="http://www.w3.org/2000/svg">
<g clip-path="url(#clip0)">
<path d="M22.675 20.9413H18.2484V11.898H9.85869V20.9413H5.41241V0H9.85869V8.20251H18.2189V0H22.675V20.9413Z" fill="#C6D32E"/>
<path d="M37.9461 20.9414L37.0983 18.7612H36.98C36.3817 19.5808 35.5984 20.2504 34.6928 20.7165C33.7211 21.1104 32.6757 21.2937 31.6267 21.2542C30.957 21.2933 30.2863 21.1964 29.6557 20.9694C29.0251 20.7425 28.4479 20.3903 27.9593 19.9344C27.4883 19.4272 27.1265 18.8301 26.896 18.1796C26.6654 17.5291 26.571 16.8388 26.6185 16.1509C26.567 15.425 26.705 14.6981 27.0193 14.0405C27.3336 13.3829 27.8135 12.8167 28.4128 12.3967C30.0632 11.4681 31.9383 11.0049 33.8351 11.0573L36.6349 10.9693V10.2654C36.6799 9.93047 36.6458 9.58974 36.5352 9.27012C36.4247 8.9505 36.2407 8.66074 35.9979 8.42371C35.755 8.18668 35.46 8.00888 35.1359 7.90433C34.8119 7.79977 34.4678 7.77134 34.1308 7.82128C32.5473 7.89696 30.9966 8.29638 29.5761 8.99446L28.117 6.0615C30.0293 5.07918 32.1548 4.57572 34.3083 4.59502C36.0823 4.4771 37.8424 4.97481 39.2869 6.00284C39.8891 6.53165 40.3593 7.19191 40.6604 7.9316C40.9615 8.67128 41.0853 9.4702 41.0221 10.2654V20.9414H37.9461ZM36.6448 13.521L34.9392 13.5797C33.9413 13.5462 32.9529 13.7828 32.0802 14.264C31.7645 14.4794 31.5116 14.7737 31.3472 15.117C31.1828 15.4603 31.1125 15.8405 31.1436 16.2193C31.1436 17.4512 31.8535 18.0671 33.283 18.0671C34.1818 18.1082 35.0606 17.7954 35.7279 17.197C36.0349 16.8953 36.2751 16.5334 36.4329 16.1344C36.5908 15.7354 36.663 15.3082 36.6448 14.8799V13.521Z" fill="#C6D32E"/>
<path d="M60.4634 20.9413H56.0565V11.5852C56.12 10.6759 55.9034 9.76903 55.4354 8.98462C55.2051 8.68966 54.9041 8.45645 54.5597 8.3062C54.2154 8.15595 53.8386 8.09342 53.4637 8.12428C52.9496 8.07908 52.4324 8.1681 51.9637 8.38249C51.495 8.59688 51.0911 8.92917 50.792 9.34635C50.1484 10.5985 49.8652 12.0023 49.9737 13.4036V20.9413H45.557V4.88825H48.9189L49.5104 6.93155H49.7568C50.2453 6.16263 50.9518 5.55385 51.7877 5.18155C52.7172 4.76879 53.7272 4.56513 54.7453 4.58518C55.5254 4.53089 56.3083 4.63752 57.0448 4.89834C57.7812 5.15916 58.4551 5.5685 59.024 6.10054C60.0666 7.30887 60.5904 8.87415 60.4831 10.4609L60.4634 20.9413Z" fill="#C6D32E"/>
<path d="M71.8009 17.7444C72.744 17.7147 73.6776 17.5467 74.5711 17.2458V20.5307C73.2907 21.054 71.9134 21.3038 70.5291 21.264C69.8281 21.3282 69.1213 21.2427 68.4564 21.0134C67.7915 20.784 67.1839 20.4161 66.6743 19.9344C65.7914 18.8047 65.3628 17.3903 65.4716 15.9651V8.20253H63.3618V6.35477L65.7871 4.88829L67.0391 1.51538H69.8587V4.88829H74.374V8.20253H69.8784V15.926C69.8593 16.1796 69.8961 16.4343 69.9863 16.6724C70.0766 16.9105 70.2181 17.1262 70.4009 17.3045C70.7994 17.6127 71.2961 17.7688 71.8009 17.7444Z" fill="#C6D32E"/>
<path d="M85.1397 21.2248C84.0324 21.2876 82.9235 21.1315 81.8776 20.7656C80.8317 20.3998 79.8695 19.8314 79.047 19.0936C78.2928 18.2827 77.7132 17.3278 77.3436 16.2873C76.9741 15.2468 76.8224 14.1425 76.8978 13.0419C76.7432 10.8031 77.4475 8.58913 78.8695 6.84355C79.5885 6.09246 80.4633 5.50506 81.4335 5.1219C82.4037 4.73874 83.4462 4.56896 84.489 4.62428C85.4658 4.56861 86.4438 4.71355 87.3615 5.05C88.2793 5.38645 89.1171 5.90719 89.8225 6.57959C90.4721 7.30002 90.9712 8.14098 91.291 9.05385C91.6108 9.96672 91.745 10.9334 91.6858 11.898V14.0195H81.3145C81.2917 15.1029 81.6907 16.1532 82.4285 16.9525C82.8209 17.3214 83.2867 17.605 83.796 17.7851C84.3053 17.9653 84.8469 18.038 85.3861 17.9986C86.3144 18.003 87.2403 17.9046 88.1466 17.7053C89.081 17.4703 89.9893 17.1428 90.8577 16.7276V20.1103C90.0725 20.4966 89.241 20.7824 88.3832 20.9609C87.3143 21.1616 86.2272 21.25 85.1397 21.2248ZM84.5186 7.73322C84.111 7.71157 83.7036 7.77918 83.3253 7.93125C82.9471 8.08332 82.6072 8.31612 82.3299 8.61311C81.7498 9.32171 81.4268 10.2032 81.4131 11.1159H87.5945C87.6369 10.2076 87.3383 9.31588 86.7565 8.61311C86.4688 8.316 86.1201 8.08367 85.734 7.93186C85.3479 7.78005 84.9334 7.71231 84.5186 7.73322Z" fill="#C6D32E"/>
<path d="M104.325 4.62423C104.821 4.61884 105.316 4.66141 105.803 4.75133L105.488 8.8477C105.061 8.75014 104.624 8.70418 104.187 8.71083C102.992 8.63261 101.812 9.0143 100.894 9.77647C100.492 10.1658 100.178 10.6359 99.974 11.1552C99.77 11.6745 99.6802 12.2311 99.7108 12.7876V20.9413H95.304V4.8882H98.6461L99.2968 7.57675H99.5137C100.007 6.71385 100.704 5.9825 101.545 5.44546C102.369 4.90466 103.336 4.61883 104.325 4.62423Z" fill="#C6D32E"/>
<path d="M120 16.1802C120.046 16.8955 119.916 17.6112 119.621 18.2654C119.325 18.9196 118.873 19.4924 118.304 19.9344C116.769 20.9011 114.962 21.3535 113.148 21.2249C112.157 21.236 111.167 21.1575 110.191 20.9902C109.392 20.8416 108.612 20.6089 107.864 20.2961V16.6886C108.755 17.0983 109.682 17.4255 110.634 17.6662C111.516 17.901 112.423 18.029 113.336 18.0475C114.933 18.0475 115.731 17.588 115.731 16.6788C115.74 16.5247 115.716 16.3705 115.662 16.2258C115.607 16.0812 115.524 15.9492 115.416 15.838C115.09 15.541 114.721 15.2939 114.321 15.1048C113.799 14.831 113.109 14.5182 112.241 14.1271C111.251 13.768 110.307 13.292 109.432 12.7095C108.889 12.3219 108.455 11.8038 108.17 11.2039C107.883 10.5406 107.745 9.82339 107.765 9.10196C107.737 8.45614 107.875 7.81381 108.167 7.23562C108.458 6.65743 108.893 6.16247 109.432 5.79749C110.85 4.93377 112.502 4.52415 114.164 4.62431C116.122 4.62426 118.056 5.04799 119.832 5.86593L118.502 9.03353C117.761 8.71525 117.004 8.43463 116.234 8.19275C115.542 7.95669 114.817 7.83129 114.085 7.82124C112.783 7.82124 112.113 8.17319 112.113 8.86733C112.128 9.06938 112.194 9.26452 112.304 9.43518C112.414 9.60584 112.565 9.74666 112.744 9.84498C113.621 10.352 114.541 10.7806 115.495 11.1257C116.492 11.503 117.436 12.0057 118.304 12.6215C118.859 13.0104 119.307 13.5315 119.606 14.1369C119.89 14.7799 120.025 15.4783 120 16.1802Z" fill="#C6D32E"/>
<path d="M15.074 33.817C15.1346 34.7824 14.9746 35.749 14.6059 36.6445C14.2371 37.54 13.6692 38.3414 12.9445 38.9888C11.2099 40.2813 9.06632 40.9159 6.9011 40.7779H4.92936V48.2178H0.49295V27.2863H7.2363C9.31658 27.1456 11.3819 27.7224 13.0825 28.919C13.7696 29.5303 14.3064 30.2897 14.6516 31.1387C14.9968 31.9878 15.1413 32.904 15.074 33.817ZM4.92936 37.1508H6.40817C7.49905 37.2272 8.58459 36.9418 9.49394 36.3393C9.83185 36.0498 10.0969 35.686 10.2681 35.277C10.4392 34.8679 10.5117 34.4249 10.4798 33.9832C10.5138 33.56 10.4546 33.1345 10.3066 32.7361C10.1585 32.3378 9.92494 31.976 9.6221 31.6759C8.84368 31.1165 7.88861 30.8529 6.93068 30.9329H4.92936V37.1508Z" stroke="#A4341C" stroke-width="2" stroke-miterlimit="10"/>
<path d="M22.2313 48.2178H18.7315V25.1061H22.2412L22.2313 48.2178Z" stroke="#A4341C" stroke-width="2" stroke-miterlimit="10"/>
<path d="M37.9954 48.218L37.1476 46.0476H37.0293C36.4281 46.8645 35.6455 47.5335 34.7421 48.0029C33.7693 48.393 32.7247 48.5762 31.676 48.5406C31.0063 48.5796 30.3356 48.4827 29.705 48.2558C29.0744 48.0288 28.4972 47.6766 28.0086 47.2207C27.5431 46.7162 27.1852 46.1236 26.9565 45.4784C26.7278 44.8333 26.6329 44.149 26.6777 43.4666C26.6777 41.7654 26.0664 15.9945 27.1016 13.7654C28.1367 11.5364 31.4788 11.1062 33.8942 11.028L36.6941 10.94V10.2361C36.7344 9.90249 36.6964 9.56413 36.5831 9.24747C36.4698 8.93081 36.2842 8.6444 36.0408 8.41062C35.7975 8.17684 35.5029 8.00201 35.1801 7.89979C34.8573 7.79756 34.5151 7.7707 34.1801 7.8213C32.5999 7.89047 31.0518 8.28676 29.6353 8.98471L28.1762 6.05175C30.0859 5.07438 32.2087 4.5775 34.3576 4.60482C36.1133 4.50032 37.8524 4.99355 39.2869 6.00287C39.8887 6.53413 40.3585 7.1962 40.6595 7.93735C40.9605 8.67849 41.0846 9.47863 41.0221 10.2752V48.218H37.9954ZM36.6941 13.3646L34.9984 13.4233C33.7168 13.4233 31.5084 14.0196 31.3408 15.6425C31.1732 17.2654 31.1929 42.6062 31.1929 43.4666C31.162 43.7414 31.1988 44.0196 31.3001 44.2774C31.4014 44.5351 31.5642 44.7646 31.7745 44.9462C31.9848 45.1279 32.2364 45.2563 32.5077 45.3204C32.779 45.3845 33.062 45.3824 33.3323 45.3143C34.7421 45.1677 35.3829 45.1774 35.7772 44.4442C36.4772 43.1537 36.6941 15.6425 36.6941 14.6649V13.3646Z" stroke="#A4341C" stroke-width="2" stroke-miterlimit="10"/>
<path d="M60.5127 48.5112H56.1058V11.4972C56.1693 10.588 55.9527 9.68109 55.4847 8.89667C55.2549 8.6006 54.9542 8.366 54.6099 8.21408C54.2657 8.06216 53.8887 7.99771 53.513 8.02656C52.9979 7.98243 52.4802 8.07294 52.0114 8.28908C51.5427 8.50522 51.1392 8.83944 50.8413 9.25841C50.1967 10.5102 49.9135 11.9143 50.023 13.3157V48.5112H45.6063V4.88829H48.9681L49.5695 6.8436H49.8061C50.2946 6.07468 51.0011 5.4659 51.837 5.0936C52.7664 4.68084 53.7765 4.47718 54.7946 4.49723C55.5736 4.44896 56.3542 4.56131 57.0873 4.82717C57.8203 5.09303 58.4898 5.50665 59.0536 6.04192C60.099 7.24868 60.6232 8.81513 60.5127 10.4023V48.5112Z" stroke="#A4341C" stroke-width="2" stroke-miterlimit="10"/>
<path d="M71.8502 45.0308C72.7943 45.0019 73.7285 44.8304 74.6205 44.5224V47.778C73.34 48.3012 71.9627 48.5511 70.5784 48.5112C69.8774 48.5754 69.1707 48.49 68.5058 48.2606C67.8409 48.0313 67.2332 47.6633 66.7237 47.1816C65.8424 46.0511 65.414 44.6373 65.5209 43.2123L65.6294 8.38832H63.5196V6.54056L65.9448 5.08385L67.2166 1.70117H69.9968V5.11318H74.512V8.38832H69.9968L69.9277 43.2123C69.9073 43.4646 69.9436 43.7182 70.034 43.9549C70.1243 44.1916 70.2665 44.4054 70.4503 44.5811C70.8452 44.8967 71.3436 45.0569 71.8502 45.0308V45.0308Z" stroke="#A4341C" stroke-width="2" stroke-miterlimit="10"/>
<path d="M89.1522 43.4665C89.1934 44.1841 89.0579 44.9009 88.7573 45.555C88.4567 46.2091 88.0001 46.7808 87.4269 47.2207C85.8875 48.1856 84.0776 48.6378 82.261 48.5112C81.27 48.5219 80.28 48.4434 79.3033 48.2766C78.4782 48.1287 77.6717 47.8927 76.8978 47.5727V43.9944C77.7872 44.4085 78.715 44.7359 79.6681 44.9721C80.5515 45.2156 81.4625 45.347 82.3793 45.3632C83.9764 45.3632 84.7749 44.9037 84.7749 43.9847C84.7803 43.8324 84.7552 43.6805 84.701 43.5379C84.6469 43.3952 84.5648 43.2646 84.4594 43.1537C84.1278 42.8593 83.7561 42.6125 83.3553 42.4204C82.8328 42.1467 82.1427 41.8338 81.2751 41.4428C80.3198 41.0647 79.4131 40.5757 78.5738 39.9861C78.0319 39.5951 77.5952 39.0781 77.302 38.4805C77.0161 37.8169 76.8782 37.0999 76.8978 36.3785C76.8715 35.7319 77.0115 35.0894 77.3047 34.5113C77.5979 33.9332 78.0346 33.4386 78.5738 33.0741C79.9913 32.2175 81.6392 31.8115 83.2961 31.9106C85.2593 31.9131 87.198 32.3436 88.9747 33.1718L87.6438 36.3199C86.9035 36 86.1466 35.7194 85.3763 35.4791C84.6794 35.2729 83.9541 35.1772 83.2271 35.1956C81.9258 35.1956 81.2554 35.5475 81.2554 36.2417C81.2723 36.4433 81.3386 36.6377 81.4485 36.8081C81.5585 36.9785 81.7088 37.1197 81.8863 37.2193C82.7629 37.7238 83.6835 38.1492 84.6369 38.4903C85.6157 38.8479 86.5461 39.324 87.4072 39.9079C87.9664 40.2977 88.4201 40.8181 88.7283 41.4232C89.0277 42.0624 89.1729 42.762 89.1522 43.4665V43.4665Z" stroke="#A4341C" stroke-width="2" stroke-miterlimit="10"/>
</g>
<defs>
<clipPath id="clip0">
<rect width="120" height="49" fill="white"/>
</clipPath>
</defs>
</svg>
