<svg width="40" height="40" viewBox="0 0 40 40" fill="none" xmlns="http://www.w3.org/2000/svg">
<path d="M37.9578 10.6271C37.5256 9.02058 36.259 7.75418 34.6527 7.32159C31.7182 6.51868 19.98 6.51868 19.98 6.51868C19.98 6.51868 8.24226 6.51868 5.30777 7.29115C3.73238 7.72328 2.43484 9.02081 2.00272 10.6271C1.23047 13.5614 1.23047 19.6467 1.23047 19.6467C1.23047 19.6467 1.23047 25.7626 2.00272 28.6662C2.4353 30.2725 3.70148 31.5389 5.308 31.9715C8.27316 32.7746 19.9805 32.7746 19.9805 32.7746C19.9805 32.7746 31.7182 32.7746 34.6527 32.0021C36.2592 31.5698 37.5256 30.3034 37.9582 28.6971C38.7302 25.7626 38.7302 19.6776 38.7302 19.6776C38.7302 19.6776 38.7611 13.5614 37.9578 10.6271ZM16.2428 25.2684V14.0249L26.0037 19.6467L16.2428 25.2684Z" fill="#A4341C"/>
</svg>
